<?xml version="1.0" encoding="UTF-8"?>
<!DOCTYPE svg PUBLIC "-//W3C//DTD SVG 1.1//EN" "http://www.w3.org/Graphics/SVG/1.1/DTD/svg11.dtd">
<!-- Creator: CorelDRAW X8 -->
<svg xmlns="http://www.w3.org/2000/svg" xml:space="preserve" width="281px" height="234px" version="1.1" style="shape-rendering:geometricPrecision; text-rendering:geometricPrecision; image-rendering:optimizeQuality; fill-rule:evenodd; clip-rule:evenodd"
viewBox="0 0 265201 221000"
 xmlns:xlink="http://www.w3.org/1999/xlink">
 <defs>
  <style type="text/css">
   <![CDATA[
    .str1 {stroke:#000000;stroke-width:2946.85;stroke-opacity:0.600000}
    .str0 {stroke:#000000;stroke-width:5893.7}
    .fil0 {fill:none}
    .fil2 {fill:none}
    .fil1 {fill:#000000}
   ]]>
  </style>
 </defs>
 <g id="Слой_x0020_1">
  <metadata id="CorelCorpID_0Corel-Layer"/>
  <g id="_2978105006464">
   <path id="Shape" class="fil0 str0" d="M185331 51582c1323,-1439 2026,-3340 1954,-5288 -71,-1952 -916,-3791 -2354,-5119l-4330 -4038c-2956,-2737 -7584,-2560 -10382,433l-57427 59138c-2737,2924 -6613,4506 -10600,4331 -6866,-277 -13519,2502 -18169,7590 -4649,5090 -6815,11966 -5911,18832 61,575 323,1110 722,1491 1059,988 2728,925 3727,-146l7279 -7806c2475,-2654 6629,-2809 9278,-338l5846 5451c2649,2470 2784,6626 310,9279l-7249 7774c-986,1057 -948,2700 32,3651 426,388 977,612 1607,635 6848,411 13542,-2231 18287,-7216 4745,-4984 7053,-11801 6308,-18619 -439,-3968 880,-7934 3638,-10889l57434 -59146z"/>
   <path id="Path" class="fil1" d="M176295 48808l-54800 56908c-840,902 -2248,953 -3144,118 -898,-837 -944,-2245 -104,-3146l54801 -56909c841,-901 2248,-954 3146,-117 895,836 942,2244 101,3146z"/>
  </g>
  <path class="fil0 str0" d="M17681 2947l229839 0c8135,0 14733,6597 14733,14733l1 144387c-1,8134 -6599,14732 -14734,14732l-229839 1c-8134,-1 -14732,-6599 -14732,-14734l-2 -144386c2,-8136 6600,-14733 14735,-14733z"/>
  <path class="fil2 str1" d="M27994 22100l209213 0c3254,0 5894,2640 5894,5894l0 126706c0,3253 -2640,5892 -5894,5892l-209213 1c-3253,-1 -5893,-2640 -5893,-5895l-1 -126704c1,-3254 2641,-5894 5895,-5894z"/>
  <line id="Path-3" class="fil0 str0" x1="106080" y1="176800" x2="97240" y2= "203320" />
  <line id="Path-3_0" class="fil0 str0" x1="159120" y1="176800" x2="167960" y2= "203320" />
  <path class="fil0 str0" d="M94294 203320l76613 0c3254,-2 5894,2638 5894,5892l-1 2948c1,3253 -2639,5892 -5893,5892l-76613 2c-3253,-2 -5893,-2641 -5893,-5895l-1 -2946c1,-3255 2641,-5895 5895,-5895z"/>
 </g>
</svg>
